<svg xmlns="http://www.w3.org/2000/svg" width="16" height="17" fill="none" viewBox="0 0 16 17"><path fill="#FFA41C" stroke="#E2822D" stroke-width=".2" d="M14.7265 6.47112L14.7266 6.47126C14.823 6.77478 14.7416 7.11098 14.5151 7.32812L14.515 7.32821L11.5339 10.1786L12.7378 14.6547L12.7379 14.655C12.7799 14.813 12.7754 14.9807 12.7249 15.136C12.6744 15.2912 12.58 15.4274 12.4534 15.5254C12.3268 15.6235 12.1742 15.6786 12.016 15.6822C11.8579 15.6859 11.703 15.638 11.5723 15.5458L11.5721 15.5457L7.99994 13.0154L4.42785 15.5456L4.42774 15.5457L4.36994 15.4641C4.25883 15.543 4.12797 15.5846 3.99433 15.5836C3.86068 15.5825 3.73043 15.5387 3.62047 15.458L14.7265 6.47112ZM14.7265 6.47112C14.679 6.32236 14.5912 6.19075 14.4732 6.09306C14.355 5.9953 14.2118 5.9359 14.0611 5.92308L14.061 5.92308L10.3204 5.60727L8.69945 1.79489C8.69943 1.79483 8.6994 1.79477 8.69938 1.79471C8.63985 1.6532 8.54267 1.53208 8.41873 1.44663C8.29466 1.36108 8.1493 1.31513 8.00021 1.31504C7.85113 1.31495 7.70571 1.36074 7.58155 1.44614C7.45754 1.53144 7.36024 1.65242 7.30056 1.79383C7.30053 1.79392 7.30049 1.794 7.30046 1.79408L5.67948 5.60727L1.93888 5.92308C1.93887 5.92308 1.93887 5.92308 1.93886 5.92308C1.79071 5.93555 1.64973 5.99308 1.53268 6.08792C1.4157 6.18271 1.32766 6.31066 1.27826 6.45592C1.22886 6.60116 1.21994 6.75821 1.25242 6.90852C1.28491 7.05883 1.35762 7.19678 1.46266 7.30556L14.7265 6.47112Z"/></svg>