<svg width="17" height="17" viewBox="0 0 17 17" fill="none" xmlns="http://www.w3.org/2000/svg">
<path d="M15.6406 6.46965L15.6406 6.4698C15.744 6.77601 15.656 7.11385 15.416 7.33042L15.4159 7.33051L12.2493 10.1802L13.5277 14.6534L13.5278 14.6537C13.5727 14.8128 13.5678 14.9817 13.5138 15.1379C13.4598 15.2941 13.3593 15.43 13.2258 15.5274C13.0923 15.6247 12.9321 15.6789 12.7669 15.6825C12.6017 15.6861 12.4393 15.6391 12.3017 15.5477L12.3015 15.5475L8.5001 13.0133L4.6988 15.5475C4.56409 15.6375 4.40542 15.685 4.24338 15.6838C4.08133 15.6826 3.9234 15.6327 3.79008 15.5406C3.65675 15.4484 3.55419 15.3184 3.4957 15.1673C3.4372 15.0161 3.42548 14.8509 3.46205 14.6931L4.50479 10.1778L1.56089 7.30796L15.6406 6.46965ZM15.6406 6.46965C15.5898 6.32002 15.4963 6.18854 15.3716 6.09145C15.2469 5.99435 15.0966 5.93589 14.939 5.92329L14.939 5.92328M15.6406 6.46965L14.939 5.92328M14.939 5.92328L10.9597 5.60709M14.939 5.92328L10.9597 5.60709M10.9597 5.60709L9.2367 1.7931C9.23665 1.79301 9.23661 1.79291 9.23657 1.79282C9.17304 1.65073 9.06976 1.53005 8.93919 1.44532C8.80854 1.36053 8.65614 1.31537 8.50038 1.31528C8.34463 1.3152 8.19218 1.36019 8.06143 1.44483C7.93069 1.52947 7.82724 1.65014 7.76356 1.79227C7.76355 1.79228 7.76355 1.79229 7.76355 1.79229L6.04053 5.60709L2.06124 5.92328L2.06122 5.92328L2.06914 6.02297L10.9597 5.60709Z" fill="#FFA41C" stroke="#E2822D" stroke-width="0.2"/>
</svg>
