<svg width="16" height="17" viewBox="0 0 16 17" fill="none" xmlns="http://www.w3.org/2000/svg">
<path d="M14.7265 6.47136L14.7266 6.47151C14.823 6.77503 14.7416 7.11122 14.5151 7.32836L14.515 7.32845L11.5339 10.1789L12.7378 14.655L12.7379 14.6552C12.7799 14.8132 12.7754 14.981 12.7249 15.1362C12.6744 15.2915 12.58 15.4276 12.4534 15.5256C12.3268 15.6237 12.1742 15.6788 12.016 15.6825C11.8579 15.6862 11.703 15.6383 11.5723 15.5461L11.5721 15.5459L7.99994 13.0156L4.42785 15.5459L4.42774 15.5459L4.36994 15.4643C4.25883 15.5433 4.12797 15.5849 3.99433 15.5838C3.86068 15.5827 3.73043 15.539 3.62047 15.4583L14.7265 6.47136ZM14.7265 6.47136C14.679 6.3226 14.5912 6.19099 14.4732 6.0933C14.355 5.99555 14.2118 5.93615 14.0611 5.92333L14.061 5.92332L10.3204 5.60752L8.69945 1.79513C8.69943 1.79507 8.6994 1.79501 8.69938 1.79495C8.63985 1.65344 8.54267 1.53233 8.41873 1.44687C8.29466 1.36133 8.1493 1.31537 8.00021 1.31528C7.85113 1.3152 7.70571 1.36099 7.58155 1.44639C7.45754 1.53169 7.36024 1.65267 7.30056 1.79408C7.30053 1.79416 7.30049 1.79424 7.30046 1.79432L5.67948 5.60752L1.93888 5.92332C1.93887 5.92332 1.93887 5.92332 1.93886 5.92332C1.79071 5.9358 1.64973 5.99332 1.53268 6.08817C1.4157 6.18296 1.32766 6.3109 1.27826 6.45617C1.22886 6.6014 1.21994 6.75846 1.25242 6.90876C1.28491 7.05908 1.35762 7.19702 1.46266 7.3058L14.7265 6.47136Z" fill="#FFA41C" stroke="#E2822D" stroke-width="0.2"/>
</svg>
