<svg xmlns="http://www.w3.org/2000/svg" width="17" height="17" fill="none" viewBox="0 0 17 17"><g clip-path="url(#clip0_44_6376)"><path fill="#FFA41C" stroke="#E2822D" stroke-width=".2" d="M11.1958 5.7689L11.1959 5.76907C11.1964 5.77064 11.1975 5.772 11.1988 5.77299C11.1999 5.77385 11.2013 5.77441 11.2027 5.77462L15.4492 5.93504C15.6885 5.93918 15.9206 6.01799 16.1129 6.16047C16.3055 6.30317 16.4487 6.50258 16.5223 6.73074C16.5958 6.9589 16.5962 7.20437 16.5232 7.43273C16.4504 7.66062 16.3082 7.86008 16.1165 8.00323L12.7696 10.6468L12.7671 10.6488L12.767 10.6488C12.7664 10.6492 12.7659 10.6499 12.7656 10.6507C12.7655 10.651 12.7655 10.6514 12.7654 10.6518C12.7654 10.6522 12.7655 10.6526 12.7656 10.653L12.766 10.6544L12.766 10.6544L13.9228 14.7338C13.9228 14.7339 13.9228 14.734 13.9229 14.734C13.9884 14.9601 13.9822 15.2009 13.9053 15.4233C13.8284 15.6458 13.6844 15.839 13.4931 15.9762L13.4928 15.9765C13.3 16.1136 13.0693 16.1873 12.8327 16.1873C12.5966 16.1873 12.3664 16.1139 12.1738 15.9773L8.65219 13.617L8.65104 13.6162C8.6504 13.6157 8.64963 13.6155 8.64884 13.6155C8.64805 13.6155 8.64728 13.6157 8.64663 13.6162L8.64549 13.617L8.64548 13.617L5.12317 15.9778C5.12309 15.9778 5.12301 15.9779 5.12294 15.9779C4.92771 16.1103 4.69647 16.1793 4.46063 16.1756C4.2247 16.172 3.99563 16.0957 3.80458 15.9572C3.61353 15.8187 3.46978 15.6248 3.39288 15.4017C3.31601 15.1787 3.30968 14.9374 3.37473 14.7107C3.37476 14.7106 3.37478 14.7105 3.37481 14.7105L4.5218 10.6465C4.52182 10.6464 4.52185 10.6463 4.52187 10.6462C4.52222 10.6446 4.52214 10.643 4.52164 10.6415C4.52112 10.6399 4.52014 10.6386 4.51884 10.6375C4.51882 10.6375 4.51881 10.6375 4.5188 10.6375L1.18596 8.01747C0.994243 7.87431 0.852026 7.67483 0.779192 7.44689C0.706224 7.21854 0.706555 6.97307 0.780136 6.74491C0.853717 6.51675 0.99686 6.31734 1.18949 6.17464C1.38183 6.03216 1.61387 5.95335 1.85318 5.94921L6.09971 5.78879C6.10112 5.78858 6.10246 5.78802 6.10361 5.78716C6.10493 5.78617 6.10593 5.78482 6.10651 5.78328L11.1958 5.7689ZM11.1958 5.7689L9.72734 1.80262M11.1958 5.7689L9.72734 1.80262M9.72734 1.80262C9.72732 1.80257 9.7273 1.80252 9.72729 1.80247M9.72734 1.80262L9.72729 1.80247M9.72729 1.80247C9.64645 1.58147 9.49967 1.39064 9.3068 1.25581C9.1139 1.12095 8.88421 1.04862 8.64884 1.04862C8.41346 1.04862 8.18378 1.12095 7.99087 1.25581C7.79802 1.39064 7.65124 1.58146 7.5704 1.80244L9.72729 1.80247ZM7.57033 1.80262L6.10652 5.78324L7.57033 1.80262ZM11.6622 10.9402L11.6622 10.9403L12.8192 15.0203L12.8183 15.0206L12.8236 15.0327C12.8238 15.0332 12.8239 15.0337 12.8239 15.0342C12.8239 15.0345 12.8239 15.0349 12.8237 15.0353C12.8235 15.0362 12.823 15.0369 12.8223 15.0374C12.8215 15.038 12.8207 15.0382 12.8198 15.0382L12.8139 15.138L12.8198 15.0382C12.8189 15.0381 12.818 15.0378 12.8174 15.0372L12.8119 15.0322L12.8058 15.0281L9.28337 12.6672C9.2833 12.6672 9.28323 12.6671 9.28315 12.6671C9.12153 12.5577 8.93508 12.4918 8.74175 12.4749V2.45808L10.1155 6.17306C10.1156 6.17311 10.1156 6.17315 10.1156 6.1732C10.1935 6.38754 10.3335 6.57383 10.5177 6.7083C10.702 6.84281 10.9221 6.91938 11.1501 6.92827L11.1502 6.92827L15.4002 7.08883L15.4002 7.08897L15.4056 7.08889C15.4064 7.08887 15.4072 7.08913 15.4079 7.08961C15.4086 7.0901 15.4091 7.09079 15.4094 7.09157C15.4096 7.09236 15.4096 7.09321 15.4093 7.09401C15.4092 7.09428 15.4091 7.09455 15.409 7.0948C15.4087 7.09525 15.4083 7.09565 15.4079 7.09596L15.4078 7.09584L15.4036 7.09917L12.071 9.719C12.0708 9.71916 12.0705 9.71933 12.0703 9.71949C11.8877 9.85841 11.7512 10.049 11.6783 10.2666C11.6054 10.4844 11.5998 10.7192 11.6622 10.9402Z"/></g><defs><clipPath id="clip0_44_6376"><rect width="17" height="17" fill="#fff"/></clipPath></defs></svg>