<svg xmlns="http://www.w3.org/2000/svg" width="181" height="73" fill="none" viewBox="0 0 181 73"><rect width="178" height="70" x="1.625" y="1.938" stroke="#fff" stroke-width="2" rx="4"/><path fill="#fff" d="M42.4735 38.6115H27.5219C26.473 38.6115 25.625 39.4415 25.625 40.4681C25.625 41.4948 26.473 42.3248 27.5219 42.3248H44.7497C44.7497 42.3248 45.6424 41.4511 44.6828 40.0313C43.7009 38.6115 42.4735 38.6115 42.4735 38.6115Z"/><path fill="#fff" d="M41.7152 22.9907L32.4318 38.7179C31.9185 39.6135 32.2086 40.7493 33.1236 41.2517C34.0385 41.7541 35.199 41.4702 35.7122 40.5746L44.9956 24.8474C45.5089 23.9518 45.2188 22.816 44.3038 22.3136C43.3889 21.7894 42.2285 22.0952 41.7152 22.9907Z"/><path fill="#fff" d="M53.0746 45.4715L43.5457 29.2856C43.5457 29.2856 42.1621 30.3341 42.1621 32.4092C42.1621 34.4843 43.0324 35.8823 43.0324 35.8823L49.7942 47.35C50.3074 48.2456 51.4678 48.5514 52.3828 48.0272C53.2754 47.5029 53.5879 46.3671 53.0746 45.4715Z"/><path fill="#fff" d="M54.0334 38.6116H48.7445C47.6957 38.6116 46.8477 39.4416 46.8477 40.4683C46.8477 41.4949 47.6957 42.3249 48.7445 42.3249H54.0334C55.0822 42.3249 55.9302 41.4949 55.9302 40.4683C55.9302 39.4635 55.0822 38.6116 54.0334 38.6116Z"/><path fill="#fff" d="M41.8271 26.4018L39.8187 22.9724C39.3054 22.0986 38.1227 21.7928 37.23 22.2952C36.3374 22.7976 36.025 23.9553 36.5382 24.829L38.5467 28.2584C39.0599 29.1322 40.2427 29.438 41.1353 28.9356C42.028 28.4332 42.3404 27.2973 41.8271 26.4018Z"/><path fill="#fff" d="M28.4591 45.4477L29.6642 43.4163C29.6642 43.4163 29.9543 42.8484 31.0924 42.8484C32.2975 42.8484 33.4579 43.8313 33.5472 44.2027L31.7396 47.3044C31.2263 48.2 30.0659 48.5058 29.1509 47.9816C28.236 47.4792 27.9459 46.3433 28.4591 45.4477Z"/><path fill="#fff" d="M76.9959 49.1446H74.3729L72.9361 44.7253H67.9419L66.5732 49.1446H64.0195L68.9675 34.0995H72.0236L76.9959 49.1446ZM72.503 42.8713L71.2036 38.9427C71.0661 38.5413 70.8086 37.5962 70.4286 36.1084H70.3824C70.2311 36.7483 69.9874 37.6934 69.6524 38.9427L68.3762 42.8713H72.503Z"/><path fill="#fff" d="M89.7202 43.5865C89.7202 45.4315 89.2108 46.8899 88.1921 47.9605C87.2797 48.9135 86.1466 49.3895 84.7941 49.3895C83.3342 49.3895 82.2855 48.8762 81.6468 47.8497H81.6006V53.5645H79.1381V41.8669C79.1381 40.707 79.1069 39.5166 79.0469 38.2956H81.2125L81.3499 40.0151H81.3961C82.2173 38.7195 83.4636 38.0729 85.136 38.0729C86.4434 38.0729 87.5349 38.5782 88.4081 39.59C89.2836 40.603 89.7202 41.9348 89.7202 43.5865ZM87.2115 43.6747C87.2115 42.6187 86.969 41.7482 86.4816 41.0631C85.9491 40.3486 85.2342 39.9914 84.3379 39.9914C83.7304 39.9914 83.1783 40.1904 82.6851 40.5827C82.1908 40.9783 81.8674 41.495 81.7161 42.1349C81.6398 42.4333 81.6017 42.6775 81.6017 42.8697V44.6786C81.6017 45.4677 81.8489 46.1336 82.3432 46.6773C82.8376 47.2211 83.4797 47.4925 84.2697 47.4925C85.1972 47.4925 85.9191 47.142 86.4354 46.4433C86.9528 45.7435 87.2115 44.821 87.2115 43.6747Z"/><path fill="#fff" d="M102.469 43.5866C102.469 45.4316 101.96 46.89 100.94 47.9606C100.029 48.9137 98.8955 49.3896 97.543 49.3896C96.083 49.3896 95.0343 48.8763 94.3968 47.8498H94.3506V53.5647H91.8881V41.8671C91.8881 40.7071 91.8569 39.5167 91.7969 38.2957H93.9625L94.0999 40.0153H94.1461C94.9662 38.7197 96.2124 38.073 97.886 38.073C99.1923 38.073 100.284 38.5783 101.159 39.5902C102.031 40.6031 102.469 41.9349 102.469 43.5866ZM99.9604 43.6748C99.9604 42.6189 99.7167 41.7484 99.2292 41.0633C98.6968 40.3488 97.9842 39.9915 97.0867 39.9915C96.4781 39.9915 95.9271 40.1905 95.4328 40.5828C94.9385 40.9785 94.6162 41.4951 94.4649 42.135C94.3898 42.4335 94.3506 42.6776 94.3506 42.8698V44.6787C94.3506 45.4678 94.5977 46.1337 95.0898 46.6775C95.5841 47.2201 96.2263 47.4926 97.0186 47.4926C97.9461 47.4926 98.6679 47.1421 99.1842 46.4434C99.7016 45.7436 99.9604 44.8211 99.9604 43.6748Z"/><path fill="#fff" d="M116.721 44.9243C116.721 46.2041 116.267 47.2453 115.356 48.0491C114.355 48.9276 112.961 49.3662 111.169 49.3662C109.515 49.3662 108.189 49.0542 107.186 48.429L107.756 46.42C108.837 47.0599 110.023 47.381 111.316 47.381C112.243 47.381 112.965 47.1752 113.484 46.766C114 46.3567 114.258 45.8073 114.258 45.1222C114.258 44.5117 114.045 43.9973 113.619 43.5801C113.195 43.163 112.487 42.7752 111.498 42.4168C108.807 41.4344 107.463 39.9952 107.463 38.1027C107.463 36.8659 107.934 35.8518 108.878 35.0627C109.818 34.2725 111.072 33.8779 112.641 33.8779C114.039 33.8779 115.201 34.1165 116.129 34.5924L115.513 36.5573C114.647 36.096 113.667 35.8654 112.571 35.8654C111.705 35.8654 111.028 36.0746 110.543 36.4906C110.133 36.8625 109.927 37.3159 109.927 37.8529C109.927 38.4475 110.162 38.9393 110.633 39.326C111.043 39.6832 111.788 40.0698 112.869 40.487C114.192 41.0082 115.163 41.6175 115.788 42.3162C116.41 43.0126 116.721 43.8843 116.721 44.9243Z"/><path fill="#fff" d="M124.863 40.1052H122.149V45.3724C122.149 46.712 122.627 47.3813 123.586 47.3813C124.026 47.3813 124.391 47.344 124.679 47.2694L124.748 49.0997C124.262 49.2772 123.624 49.3665 122.833 49.3665C121.86 49.3665 121.1 49.076 120.551 48.496C120.005 47.9149 119.73 46.9404 119.73 45.5713V40.1029H118.113V38.2941H119.73V36.3078L122.149 35.5933V38.2941H124.863V40.1052Z"/><path fill="#fff" d="M137.11 43.6296C137.11 45.2971 136.622 46.6662 135.65 47.7368C134.63 48.839 133.276 49.3885 131.589 49.3885C129.963 49.3885 128.668 48.8605 127.702 47.8046C126.737 46.7487 126.254 45.4158 126.254 43.8093C126.254 42.1282 126.751 40.7512 127.747 39.6806C128.742 38.6089 130.084 38.073 131.771 38.073C133.398 38.073 134.706 38.601 135.694 39.658C136.638 40.6834 137.11 42.0072 137.11 43.6296ZM134.555 43.7076C134.555 42.707 134.337 41.849 133.894 41.1333C133.378 40.2674 132.64 39.8355 131.684 39.8355C130.694 39.8355 129.942 40.2685 129.426 41.1333C128.983 41.8501 128.765 42.7217 128.765 43.7528C128.765 44.7533 128.983 45.6114 129.426 46.3259C129.958 47.1919 130.702 47.6237 131.662 47.6237C132.602 47.6237 133.34 47.1828 133.872 46.3033C134.326 45.5741 134.555 44.707 134.555 43.7076Z"/><path fill="#fff" d="M145.113 40.4155C144.87 40.3714 144.61 40.3488 144.337 40.3488C143.471 40.3488 142.801 40.6687 142.33 41.3097C141.92 41.875 141.714 42.5895 141.714 43.4521V49.1443H139.253L139.276 41.7122C139.276 40.4618 139.245 39.3234 139.184 38.2968H141.328L141.419 40.3725H141.487C141.747 39.6591 142.157 39.0848 142.718 38.6541C143.266 38.2663 143.859 38.073 144.498 38.073C144.725 38.073 144.931 38.0888 145.113 38.1171V40.4155Z"/><path fill="#fff" d="M156.125 43.2041C156.125 43.636 156.096 44 156.035 44.2974H148.648C148.677 45.3691 149.034 46.1887 149.72 46.754C150.342 47.2594 151.147 47.5126 152.136 47.5126C153.23 47.5126 154.228 47.3419 155.125 46.9993L155.511 48.6725C154.462 49.1202 153.224 49.3429 151.795 49.3429C150.076 49.3429 148.727 48.8477 147.746 47.8585C146.766 46.8693 146.275 45.5409 146.275 43.8745C146.275 42.2387 146.732 40.8764 147.645 39.7899C148.602 38.63 149.894 38.05 151.52 38.05C153.118 38.05 154.327 38.63 155.148 39.7899C155.798 40.7113 156.125 41.8509 156.125 43.2041ZM153.777 42.579C153.793 41.8645 153.633 41.2472 153.299 40.726C152.873 40.0556 152.218 39.721 151.337 39.721C150.532 39.721 149.877 40.0477 149.377 40.7034C148.967 41.2246 148.723 41.8498 148.648 42.5778H153.777V42.579Z"/><path fill="#fff" d="M71.6894 24.8425C71.6894 26.1731 71.2816 27.1748 70.4674 27.8474C69.7132 28.4681 68.6413 28.779 67.253 28.779C66.5647 28.779 65.9756 28.7496 65.4824 28.6908V21.4204C66.1258 21.3186 66.8187 21.2666 67.5672 21.2666C68.8897 21.2666 69.8864 21.5481 70.5586 22.1111C71.3117 22.7476 71.6894 23.6577 71.6894 24.8425ZM70.4131 24.8753C70.4131 24.0127 70.1798 23.3513 69.7132 22.89C69.2465 22.4299 68.5651 22.1993 67.6677 22.1993C67.2865 22.1993 66.962 22.2242 66.6929 22.2762V27.8033C66.8418 27.8259 67.1144 27.8361 67.5106 27.8361C68.4369 27.8361 69.1518 27.584 69.6554 27.0798C70.159 26.5756 70.4131 25.8407 70.4131 24.8753Z"/><path fill="#fff" d="M78.4556 26.0016C78.4556 26.8212 78.2166 27.4927 77.7384 28.0196C77.2371 28.5611 76.573 28.8313 75.7437 28.8313C74.9445 28.8313 74.3081 28.5724 73.8334 28.0523C73.3598 27.5334 73.123 26.8789 73.123 26.0897C73.123 25.2645 73.3667 24.5873 73.8565 24.0616C74.3462 23.5359 75.0045 23.2725 75.8338 23.2725C76.6331 23.2725 77.2752 23.5314 77.7615 24.0503C78.2235 24.5545 78.4556 25.2057 78.4556 26.0016ZM77.2002 26.04C77.2002 25.5482 77.0916 25.1265 76.8756 24.7749C76.6215 24.3499 76.26 24.1373 75.7899 24.1373C75.3037 24.1373 74.9341 24.3499 74.68 24.7749C74.4628 25.1265 74.3554 25.555 74.3554 26.0615C74.3554 26.5533 74.464 26.9749 74.68 27.3265C74.9422 27.7516 75.3071 27.9642 75.7784 27.9642C76.2404 27.9642 76.603 27.7482 76.8641 27.3152C77.0881 26.9569 77.2002 26.5318 77.2002 26.04Z"/><path fill="#fff" d="M87.5312 23.3831L85.8276 28.7124H84.7188L84.0131 26.3982C83.834 25.8205 83.6885 25.2462 83.5753 24.6764H83.5534C83.4483 25.262 83.3027 25.8352 83.1156 26.3982L82.366 28.7124H81.2445L79.6426 23.3831H80.8865L81.5021 25.9166C81.6511 26.5158 81.7735 27.0867 81.8717 27.6271H81.8937C81.9837 27.1816 82.1327 26.6141 82.3429 25.9279L83.1156 23.3842H84.102L84.8424 25.8736C85.0214 26.4807 85.1669 27.0652 85.2789 27.6282H85.3124C85.3944 27.0799 85.518 26.4954 85.682 25.8736L86.3427 23.3842H87.5312V23.3831Z"/><path fill="#fff" d="M93.8056 28.7137H92.5952V25.6613C92.5952 24.7207 92.2302 24.2504 91.498 24.2504C91.1387 24.2504 90.8489 24.3793 90.6236 24.6381C90.4007 24.897 90.2875 25.2023 90.2875 25.5516V28.7126H89.0771V24.9072C89.0771 24.4392 89.0621 23.9316 89.0332 23.3821H90.0969L90.1535 24.2153H90.187C90.328 23.9564 90.5382 23.7428 90.8142 23.5721C91.1422 23.3731 91.5095 23.2725 91.9114 23.2725C92.4196 23.2725 92.8424 23.433 93.1785 23.7552C93.5966 24.1498 93.8056 24.7388 93.8056 25.5211V28.7137Z"/><path fill="#fff" d="M97.1429 28.7126H95.9336V20.938H97.1429V28.7126Z"/><path fill="#fff" d="M104.27 26.0016C104.27 26.8212 104.031 27.4927 103.553 28.0196C103.052 28.5611 102.386 28.8313 101.558 28.8313C100.758 28.8313 100.121 28.5724 99.6478 28.0523C99.1743 27.5334 98.9375 26.8789 98.9375 26.0897C98.9375 25.2645 99.1812 24.5873 99.6709 24.0616C100.161 23.5359 100.819 23.2725 101.647 23.2725C102.448 23.2725 103.089 23.5314 103.576 24.0503C104.038 24.5545 104.27 25.2057 104.27 26.0016ZM103.013 26.04C103.013 25.5482 102.905 25.1265 102.689 24.7749C102.436 24.3499 102.073 24.1373 101.604 24.1373C101.117 24.1373 100.747 24.3499 100.494 24.7749C100.277 25.1265 100.17 25.555 100.17 26.0615C100.17 26.5533 100.278 26.9749 100.494 27.3265C100.757 27.7516 101.122 27.9642 101.593 27.9642C102.055 27.9642 102.416 27.7482 102.677 27.3152C102.903 26.9569 103.013 26.5318 103.013 26.04Z"/><path fill="#fff" d="M110.128 28.7103H109.041L108.951 28.0964H108.918C108.546 28.586 108.016 28.8313 107.327 28.8313C106.813 28.8313 106.397 28.6696 106.084 28.3485C105.8 28.0569 105.658 27.694 105.658 27.2632C105.658 26.612 105.935 26.1157 106.493 25.7721C107.05 25.4284 107.833 25.2599 108.841 25.2678V25.1684C108.841 24.4663 108.465 24.1158 107.711 24.1158C107.174 24.1158 106.7 24.2481 106.291 24.5104L106.045 23.7326C106.551 23.4262 107.176 23.2725 107.913 23.2725C109.336 23.2725 110.049 24.0073 110.049 25.477V27.4396C110.049 27.9721 110.076 28.396 110.128 28.7103ZM108.871 26.8789V26.057C107.536 26.0343 106.869 26.3927 106.869 27.131C106.869 27.4091 106.945 27.6171 107.101 27.7561C107.257 27.8952 107.455 27.9642 107.692 27.9642C107.958 27.9642 108.206 27.8816 108.432 27.7177C108.66 27.5526 108.8 27.3435 108.852 27.0869C108.864 27.0292 108.871 26.9591 108.871 26.8789Z"/><path fill="#fff" d="M117.004 28.7126H115.93L115.873 27.8568H115.84C115.497 28.508 114.912 28.8336 114.091 28.8336C113.435 28.8336 112.889 28.5815 112.456 28.0773C112.023 27.5731 111.807 26.9185 111.807 26.1147C111.807 25.2521 112.041 24.5534 112.512 24.0198C112.969 23.5224 113.528 23.2737 114.193 23.2737C114.924 23.2737 115.436 23.5145 115.727 23.9972H115.75V20.938H116.961V27.2769C116.961 27.7958 116.975 28.274 117.004 28.7126ZM115.75 26.4652V25.5766C115.75 25.4228 115.738 25.2984 115.716 25.2035C115.648 24.9186 115.501 24.6789 115.279 24.4856C115.053 24.2923 114.782 24.195 114.469 24.195C114.017 24.195 113.664 24.3703 113.404 24.7219C113.146 25.0735 113.016 25.5223 113.016 26.0706C113.016 26.5974 113.139 27.0248 113.388 27.3537C113.65 27.7042 114.003 27.8794 114.446 27.8794C114.843 27.8794 115.161 27.7336 115.402 27.4408C115.635 27.1706 115.75 26.845 115.75 26.4652Z"/><path fill="#fff" d="M127.358 26.0016C127.358 26.8212 127.119 27.4927 126.641 28.0196C126.139 28.5611 125.477 28.8313 124.646 28.8313C123.848 28.8313 123.212 28.5724 122.736 28.0523C122.262 27.5334 122.025 26.8789 122.025 26.0897C122.025 25.2645 122.269 24.5873 122.759 24.0616C123.249 23.5359 123.907 23.2725 124.737 23.2725C125.535 23.2725 126.179 23.5314 126.664 24.0503C127.126 24.5545 127.358 25.2057 127.358 26.0016ZM126.104 26.04C126.104 25.5482 125.995 25.1265 125.779 24.7749C125.524 24.3499 125.164 24.1373 124.692 24.1373C124.207 24.1373 123.838 24.3499 123.582 24.7749C123.365 25.1265 123.258 25.555 123.258 26.0615C123.258 26.5533 123.366 26.9749 123.582 27.3265C123.845 27.7516 124.209 27.9642 124.681 27.9642C125.143 27.9642 125.507 27.7482 125.768 27.3152C125.99 26.9569 126.104 26.5318 126.104 26.04Z"/><path fill="#fff" d="M133.865 28.7137H132.656V25.6613C132.656 24.7207 132.291 24.2504 131.557 24.2504C131.198 24.2504 130.908 24.3793 130.684 24.6381C130.46 24.897 130.348 25.2023 130.348 25.5516V28.7126H129.136V24.9072C129.136 24.4392 129.123 23.9316 129.094 23.3821H130.156L130.213 24.2153H130.246C130.388 23.9564 130.599 23.7428 130.874 23.5721C131.203 23.3731 131.569 23.2725 131.972 23.2725C132.479 23.2725 132.902 23.433 133.238 23.7552C133.657 24.1498 133.865 24.7388 133.865 25.5211V28.7137Z"/><path fill="#fff" d="M142.013 24.2682H140.68V26.8571C140.68 27.5151 140.917 27.844 141.386 27.844C141.603 27.844 141.783 27.826 141.925 27.7886L141.957 28.6874C141.718 28.7756 141.403 28.8197 141.016 28.8197C140.538 28.8197 140.166 28.6772 139.897 28.3924C139.627 28.1075 139.493 27.6281 139.493 26.9554V24.2682H138.697V23.3807H139.493V22.4039L140.679 22.0535V23.3796H142.012V24.2682H142.013Z"/><path fill="#fff" d="M148.42 28.7126H147.208V25.6828C147.208 24.7275 146.843 24.2493 146.112 24.2493C145.551 24.2493 145.167 24.5263 144.957 25.0803C144.921 25.1967 144.901 25.3391 144.901 25.5065V28.7115H143.691V20.938H144.901V24.1498H144.924C145.305 23.5653 145.851 23.2737 146.559 23.2737C147.061 23.2737 147.475 23.4342 147.804 23.7564C148.214 24.1577 148.42 24.7547 148.42 25.5438V28.7126Z"/><path fill="#fff" d="M155.03 25.7959C155.03 26.0084 155.014 26.1871 154.985 26.3329H151.355C151.371 26.8597 151.544 27.2611 151.88 27.5392C152.188 27.7879 152.584 27.9123 153.069 27.9123C153.606 27.9123 154.096 27.8286 154.537 27.6602L154.726 28.4832C154.21 28.7025 153.602 28.8122 152.899 28.8122C152.056 28.8122 151.392 28.5691 150.911 28.083C150.429 27.5968 150.189 26.9445 150.189 26.126C150.189 25.3222 150.412 24.6529 150.862 24.1193C151.331 23.5495 151.965 23.2646 152.765 23.2646C153.548 23.2646 154.143 23.5495 154.545 24.1193C154.869 24.5715 155.03 25.1312 155.03 25.7959ZM153.875 25.4895C153.884 25.1379 153.805 24.835 153.641 24.5795C153.43 24.2505 153.11 24.0854 152.677 24.0854C152.282 24.0854 151.96 24.2459 151.714 24.5682C151.513 24.8248 151.394 25.1312 151.355 25.4895H153.875Z"/></svg>