<svg xmlns="http://www.w3.org/2000/svg" width="181" height="73" fill="none" viewBox="0 0 181 73"><rect width="178" height="70" x="1.625" y="1.938" stroke="#fff" stroke-width="2" rx="4"/><path fill="#fff" d="M90.2758 38.8594C89.3136 38.8641 88.3742 39.1673 87.5763 39.7307C86.7784 40.294 86.1578 41.0923 85.7927 42.0248C85.4276 42.9573 85.3344 43.9821 85.5249 44.97C85.7154 45.9579 86.181 46.8646 86.863 47.5755C87.5451 48.2865 88.4129 48.77 89.357 48.9648C90.3011 49.1597 91.2792 49.0573 92.1678 48.6705C93.0564 48.2838 93.8156 47.63 94.3498 46.7917C94.8839 45.9533 95.169 44.9681 95.169 43.9603C95.1784 43.2857 95.058 42.616 94.8151 41.9911C94.5722 41.3663 94.2118 40.799 93.7552 40.323C93.2986 39.8471 92.7553 39.4722 92.1576 39.2208C91.5598 38.9693 90.9199 38.8464 90.2758 38.8594ZM90.2758 47.0568C89.684 47.1002 89.0935 46.956 88.5809 46.6432C88.0684 46.3304 87.6575 45.8633 87.4018 45.3026C87.1461 44.742 87.0573 44.1137 87.147 43.4996C87.2367 42.8854 87.5008 42.3137 87.9048 41.8587C88.3089 41.4038 88.8343 41.0867 89.4127 40.9487C89.9911 40.8106 90.5958 40.858 91.1481 41.0846C91.7005 41.3113 92.1749 41.7068 92.5099 42.2196C92.8448 42.7324 93.0247 43.3389 93.0261 43.9603C93.0446 44.3539 92.9876 44.7475 92.8585 45.1178C92.7294 45.488 92.5308 45.8274 92.2745 46.116C92.0182 46.4046 91.7093 46.6366 91.366 46.7981C91.0228 46.9597 90.6521 47.0477 90.2758 47.0568ZM79.6071 38.8594C78.6443 38.8617 77.7038 39.1629 76.9044 39.7248C76.105 40.2868 75.4826 41.0843 75.1157 42.0165C74.7489 42.9488 74.654 43.974 74.8433 44.9627C75.0325 45.9514 75.4972 46.8592 76.1788 47.5714C76.8604 48.2835 77.7282 48.7682 78.6726 48.964C79.617 49.1599 80.5957 49.0581 81.4849 48.6717C82.3742 48.2853 83.1342 47.6315 83.6688 46.7929C84.2035 45.9543 84.4888 44.9686 84.4888 43.9603C84.4981 43.2857 84.3778 42.616 84.1349 41.9911C83.892 41.3663 83.5316 40.799 83.075 40.323C82.6184 39.8471 82.0751 39.4722 81.4774 39.2208C80.8796 38.9693 80.2397 38.8464 79.5956 38.8594H79.6071ZM79.6071 47.0568C79.015 47.1026 78.4235 46.9606 77.9095 46.6494C77.3956 46.3382 76.983 45.8721 76.7254 45.3118C76.4679 44.7515 76.3774 44.1231 76.4657 43.5082C76.554 42.8933 76.817 42.3205 77.2204 41.8643C77.6239 41.4082 78.1491 41.0898 78.7278 40.9506C79.3064 40.8115 79.9116 40.858 80.4647 41.0842C81.0177 41.3103 81.4929 41.7056 81.8284 42.2186C82.164 42.7316 82.3443 43.3385 82.3459 43.9603C82.3644 44.3539 82.3074 44.7475 82.1783 45.1178C82.0492 45.488 81.8506 45.8274 81.5943 46.116C81.338 46.4046 81.0291 46.6366 80.6858 46.7981C80.3425 46.9597 79.9719 47.0477 79.5956 47.0568H79.6071ZM66.8986 40.4316V42.592H71.849C71.7714 43.6096 71.3676 44.5697 70.7031 45.3165C70.2078 45.8449 69.6124 46.2588 68.9552 46.5317C68.298 46.8045 67.5935 46.9303 66.8871 46.9008C65.4283 46.9008 64.0292 46.2938 62.9976 45.2134C61.9661 44.133 61.3866 42.6677 61.3866 41.1398C61.3866 39.6118 61.9661 38.1465 62.9976 37.0661C64.0292 35.9857 65.4283 35.3787 66.8871 35.3787C68.2826 35.3549 69.6302 35.9117 70.6343 36.927L72.0897 35.4027C71.4118 34.6838 70.6031 34.1148 69.7114 33.7292C68.8197 33.3437 67.8632 33.1496 66.8986 33.1583C65.8798 33.1168 64.8635 33.2911 63.9106 33.6708C62.9578 34.0505 62.0878 34.6277 61.3531 35.3679C60.6183 36.1082 60.0337 36.9961 59.6344 37.9786C59.2351 38.9611 59.0293 40.0179 59.0293 41.0857C59.0293 42.1535 59.2351 43.2104 59.6344 44.1929C60.0337 45.1754 60.6183 46.0633 61.3531 46.8035C62.0878 47.5438 62.9578 48.121 63.9106 48.5007C64.8635 48.8804 65.8798 49.0547 66.8986 49.0131C67.8794 49.0596 68.8584 48.8854 69.7697 48.5024C70.6809 48.1194 71.5032 47.5365 72.1814 46.7928C73.3819 45.4112 74.0229 43.5951 73.969 41.7279C73.9727 41.273 73.9344 40.8188 73.8544 40.3716L66.8986 40.4316ZM118.821 42.1119C118.522 41.1911 117.964 40.387 117.219 39.8061C116.474 39.2253 115.578 38.8951 114.65 38.8594C114.023 38.8581 113.403 38.9915 112.827 39.2513C112.251 39.5111 111.733 39.8918 111.303 40.3699C110.874 40.8479 110.542 41.4132 110.329 42.0308C110.117 42.6483 110.027 43.305 110.066 43.9603C110.052 44.6311 110.168 45.2979 110.405 45.921C110.643 46.5441 110.998 47.1107 111.45 47.5868C111.901 48.0629 112.439 48.4389 113.033 48.6922C113.626 48.9455 114.262 49.071 114.902 49.0612C115.704 49.0657 116.494 48.8619 117.202 48.4681C117.91 48.0744 118.513 47.5028 118.959 46.8048L117.297 45.6045C117.049 46.0376 116.698 46.3957 116.278 46.644C115.858 46.8922 115.384 47.0221 114.902 47.0208C114.406 47.0406 113.915 46.9035 113.494 46.6274C113.073 46.3513 112.741 45.9489 112.542 45.4725L119.062 42.652L118.821 42.1119ZM112.175 43.8162C112.152 43.445 112.199 43.0726 112.315 42.721C112.431 42.3693 112.613 42.0454 112.85 41.7682C113.087 41.491 113.374 41.2661 113.695 41.1067C114.016 40.9472 114.364 40.8565 114.719 40.8397C115.088 40.8142 115.457 40.903 115.779 41.095C116.101 41.287 116.362 41.5739 116.529 41.9199L112.175 43.8162ZM106.881 48.7611H109.023V33.7585H106.881V48.7611ZM103.374 39.9996H103.294C102.971 39.6214 102.575 39.3189 102.133 39.1121C101.69 38.9053 101.211 38.7987 100.727 38.7993C99.4745 38.8629 98.2936 39.4288 97.4288 40.3795C96.564 41.3303 96.0816 42.5931 96.0816 43.9062C96.0816 45.2194 96.564 46.4822 97.4288 47.433C98.2936 48.3837 99.4745 48.9495 100.727 49.0131C101.212 49.0217 101.694 48.9187 102.137 48.7113C102.581 48.5039 102.976 48.1973 103.294 47.8129H103.363V48.5451C103.363 50.5014 102.366 51.5456 100.761 51.5456C100.227 51.5325 99.7084 51.3532 99.2716 51.0304C98.8349 50.7077 98.4998 50.2561 98.3089 49.7333L96.441 50.5494C96.7926 51.4452 97.3917 52.2106 98.1615 52.7473C98.9312 53.2841 99.8365 53.5677 100.761 53.562C103.271 53.562 105.345 52.0137 105.345 48.245V39.1594H103.374V39.9996ZM100.922 47.0568C100.182 46.9886 99.4945 46.6328 98.9933 46.0596C98.4922 45.4865 98.2142 44.7375 98.2142 43.9603C98.2142 43.1831 98.4922 42.4341 98.9933 41.8609C99.4945 41.2877 100.182 40.9319 100.922 40.8637C101.288 40.8834 101.647 40.9797 101.978 41.147C102.308 41.3143 102.603 41.5491 102.846 41.8377C103.088 42.1262 103.273 42.4627 103.389 42.8272C103.505 43.1918 103.551 43.577 103.523 43.9603C103.554 44.3452 103.511 44.7327 103.395 45.0994C103.279 45.4662 103.093 45.8045 102.849 46.094C102.605 46.3834 102.307 46.618 101.974 46.7835C101.641 46.949 101.279 47.042 100.91 47.0568H100.922ZM128.86 33.7585H123.737V48.7611H125.88V43.0721H128.871C129.482 43.1181 130.095 43.0317 130.673 42.8185C131.25 42.6053 131.78 42.2698 132.228 41.8329C132.676 41.3959 133.033 40.867 133.278 40.279C133.522 39.691 133.648 39.0566 133.648 38.4153C133.648 37.774 133.522 37.1395 133.278 36.5515C133.033 35.9636 132.676 35.4346 132.228 34.9977C131.78 34.5608 131.25 34.2252 130.673 34.012C130.095 33.7988 129.482 33.7125 128.871 33.7585H128.86ZM128.86 40.9597H125.869V35.8468H128.906C129.558 35.8468 130.183 36.1181 130.644 36.6009C131.105 37.0837 131.364 37.7385 131.364 38.4213C131.364 39.1041 131.105 39.7589 130.644 40.2417C130.183 40.7245 129.558 40.9957 128.906 40.9957L128.86 40.9597ZM142.073 38.7993C141.292 38.7505 140.516 38.9414 139.838 39.3487C139.16 39.756 138.61 40.3618 138.257 41.0917L140.159 41.9199C140.346 41.5579 140.63 41.2607 140.976 41.0647C141.322 40.8686 141.715 40.7821 142.107 40.8157C142.379 40.7824 142.655 40.8062 142.918 40.8857C143.181 40.9652 143.426 41.0988 143.64 41.2786C143.853 41.4585 144.03 41.6811 144.16 41.9334C144.291 42.1856 144.372 42.4626 144.399 42.748V42.9041C143.711 42.5224 142.943 42.3245 142.164 42.328C140.113 42.328 138.039 43.5282 138.039 45.7006C138.059 46.1638 138.168 46.618 138.359 47.0365C138.549 47.4549 138.818 47.829 139.149 48.1368C139.481 48.4445 139.867 48.6795 140.287 48.828C140.706 48.9764 141.15 49.0353 141.591 49.0011C142.131 49.0417 142.671 48.9294 143.155 48.676C143.639 48.4226 144.049 48.0374 144.341 47.5609H144.41V48.7611H146.473V42.9881C146.473 40.3596 144.571 38.8353 142.13 38.8353L142.073 38.7993ZM141.809 47.0208C141.11 47.0208 140.136 46.6487 140.136 45.7486C140.136 44.5484 141.351 44.1523 142.428 44.1523C143.109 44.1347 143.781 44.3088 144.376 44.6564C144.304 45.3062 144.011 45.907 143.55 46.3481C143.088 46.7892 142.491 47.0409 141.866 47.0568L141.809 47.0208ZM153.99 39.1594L151.538 45.6646H151.469L148.925 39.1594H146.633L150.449 48.257L148.272 53.3099H150.507L156.374 39.1594H153.99ZM134.727 48.7611H136.87V33.7585H134.727V48.7611Z"/><path fill="#fff" d="M66.4614 25.1219C66.4809 25.5621 66.4147 26.0019 66.267 26.4145C66.1192 26.8272 65.893 27.2041 65.6019 27.5223C65.2769 27.8759 64.8845 28.1538 64.4501 28.3378C64.0157 28.5219 63.5491 28.608 63.0808 28.5905C62.3703 28.5847 61.6773 28.3594 61.0885 27.9428C60.4997 27.5262 60.0414 26.937 59.771 26.2488C59.5006 25.5606 59.4301 24.8042 59.5684 24.0742C59.7066 23.3443 60.0475 22.6733 60.5483 22.1454C60.8774 21.7934 61.272 21.516 61.7076 21.3302C62.1432 21.1444 62.6106 21.0542 63.0808 21.0652C63.5653 21.0635 64.045 21.1656 64.4903 21.3652C64.905 21.5404 65.2742 21.816 65.5675 22.1694L64.9602 22.8055C64.7315 22.5205 64.4426 22.2952 64.1164 22.1473C63.7903 21.9994 63.4357 21.933 63.0808 21.9533C62.7229 21.9515 62.3683 22.0254 62.0383 22.1706C61.7082 22.3157 61.4096 22.5292 61.1603 22.7982C60.9109 23.0672 60.716 23.3861 60.5872 23.7359C60.4585 24.0857 60.3984 24.4592 60.4108 24.8338C60.4033 25.3933 60.5541 25.9426 60.8443 26.4123C61.1345 26.8821 61.5511 27.2513 62.0414 27.4734C62.5317 27.6955 63.0739 27.7606 63.5994 27.6603C64.125 27.5601 64.6105 27.2991 64.9946 26.9102C65.3472 26.51 65.5506 25.9902 65.5675 25.4459H63.0808V24.5818H66.4155C66.4461 24.76 66.4614 24.9408 66.4614 25.1219ZM71.7098 22.1214H68.6157V24.4018H71.4348V25.2659H68.6157V27.5463H71.7098V28.4345H67.699V21.2332H71.7098V22.1214ZM75.4685 28.4345H74.5861V22.1214H72.6609V21.2332H77.4395V22.1214H75.4685V28.4345ZM80.8086 28.4345V21.2332H81.691V28.4345H80.8086ZM85.6101 28.4345H84.7277V22.1214H82.8025V21.2332H87.5238V22.1214H85.6101V28.4345ZM96.4737 27.4983C95.8037 28.196 94.8974 28.5877 93.9526 28.5877C93.0078 28.5877 92.1014 28.196 91.4315 27.4983C90.7804 26.7764 90.4176 25.8209 90.4176 24.8278C90.4176 23.8347 90.7804 22.8793 91.4315 22.1574C91.7617 21.809 92.1545 21.5325 92.5872 21.3438C93.0198 21.1551 93.4839 21.058 93.9526 21.058C94.4213 21.058 94.8853 21.1551 95.318 21.3438C95.7507 21.5325 96.1435 21.809 96.4737 22.1574C97.1274 22.8779 97.4919 23.8339 97.4919 24.8278C97.4919 25.8218 97.1274 26.7778 96.4737 27.4983ZM92.0847 26.8982C92.5808 27.4156 93.2524 27.7062 93.9526 27.7062C94.6527 27.7062 95.3244 27.4156 95.8205 26.8982C96.3101 26.3329 96.5813 25.597 96.5813 24.8338C96.5813 24.0706 96.3101 23.3348 95.8205 22.7695C95.3244 22.252 94.6527 21.9615 93.9526 21.9615C93.2524 21.9615 92.5808 22.252 92.0847 22.7695C91.5951 23.3348 91.3239 24.0706 91.3239 24.8338C91.3239 25.597 91.5951 26.3329 92.0847 26.8982ZM98.7312 28.4345V21.2332H99.8084L103.155 26.8382V21.2332H104.037V28.4345H103.12L99.625 22.5654V28.4345H98.7312Z"/><path fill="#fff" fill-rule="evenodd" d="M93.9526 21.178C93.499 21.178 93.0499 21.272 92.6312 21.4546C92.2129 21.637 91.8332 21.9042 91.5138 22.2409C90.8834 22.9404 90.5322 23.8659 90.5322 24.8278C90.5322 25.7897 90.8833 26.7151 91.5136 27.4145C92.1619 28.0891 93.0387 28.4677 93.9526 28.4677C94.8666 28.4677 95.7434 28.089 96.3917 27.4144C97.0245 26.7163 97.3773 25.7905 97.3773 24.8278C97.3773 23.8651 97.0244 22.9391 96.3915 22.241C96.0721 21.9043 95.6923 21.6371 95.274 21.4546C94.8552 21.272 94.4062 21.178 93.9526 21.178ZM92.5431 21.233C92.9898 21.0383 93.4688 20.938 93.9526 20.938C94.4364 20.938 94.9154 21.0383 95.3621 21.233C95.8087 21.4278 96.2141 21.7132 96.555 22.0728L96.5568 22.0747C97.2307 22.8175 97.6065 23.8031 97.6065 24.8278C97.6065 25.8526 97.2307 26.8382 96.5567 27.581L96.5545 27.5834C95.8631 28.3035 94.9277 28.7077 93.9526 28.7077C92.9775 28.7077 92.0421 28.3035 91.3507 27.5834L91.3482 27.5808C90.6769 26.8366 90.303 25.8516 90.303 24.8278C90.303 23.8041 90.677 22.8191 91.3482 22.0749L91.3502 22.0728C91.691 21.7132 92.0965 21.4278 92.5431 21.233ZM63.0783 21.1852C62.6237 21.1746 62.1719 21.2617 61.7508 21.4414C61.3297 21.621 60.9483 21.8892 60.6302 22.2293L60.6296 22.23C60.1447 22.7411 59.8147 23.3908 59.6808 24.0976C59.5469 24.8043 59.6151 25.5368 59.877 26.2031C60.1388 26.8694 60.5826 27.44 61.1526 27.8434C61.7227 28.2467 62.3938 28.4648 63.0817 28.4705L63.0849 28.4705C63.5371 28.4874 63.9876 28.4043 64.4071 28.2265C64.8265 28.0488 65.2055 27.7806 65.5192 27.4392C65.7995 27.1327 66.0174 26.7698 66.1597 26.3724C66.302 25.975 66.3657 25.5514 66.3469 25.1274L66.4614 25.1219L66.3468 25.1218C66.3468 24.9812 66.3372 24.8409 66.318 24.7018H63.1954V25.3259H65.6859L65.6821 25.4499C65.6642 26.023 65.4501 26.5702 65.0788 26.9916L65.0743 26.9966C64.674 27.402 64.1678 27.6739 63.62 27.7784C63.0721 27.8829 62.507 27.8151 61.9959 27.5836C61.4848 27.3521 61.0506 26.9672 60.7481 26.4775C60.4461 25.9887 60.2889 25.4172 60.2962 24.8351C60.2837 24.4452 60.3463 24.0567 60.4803 23.6928C60.6147 23.3279 60.818 22.9952 61.0781 22.7146C61.3381 22.434 61.6496 22.2113 61.9939 22.0599C62.3371 21.9089 62.7058 21.8319 63.078 21.8333C63.4495 21.8126 63.8205 21.8824 64.162 22.0372C64.4662 22.1752 64.7396 22.3773 64.9652 22.6305L65.4094 22.1652C65.1404 21.8658 64.8123 21.6307 64.4475 21.4765L64.4453 21.4756C64.0142 21.2824 63.55 21.1836 63.0812 21.1852L63.0783 21.1852ZM66.576 25.1191C66.5958 25.5747 66.5272 26.0297 66.3743 26.4567C66.2211 26.8845 65.9865 27.2753 65.6847 27.6053C65.3485 27.9711 64.9424 28.2587 64.493 28.4491C64.0442 28.6392 63.5622 28.7283 63.0783 28.7105C62.3458 28.7042 61.6314 28.4717 61.0243 28.0423C60.4169 27.6125 59.944 27.0045 59.665 26.2945C59.386 25.5844 59.3133 24.804 59.456 24.0509C59.5986 23.2979 59.9502 22.6057 60.4667 22.0611C60.8068 21.6976 61.2144 21.411 61.6644 21.219C62.1141 21.0272 62.5965 20.934 63.0819 20.9451C63.5811 20.9436 64.0753 21.0488 64.5343 21.2544C64.9653 21.4367 65.349 21.7232 65.654 22.0906L65.7241 22.1751L64.9529 22.9829L64.8725 22.8827C64.6552 22.612 64.3808 22.398 64.0709 22.2575C63.7611 22.117 63.4242 22.0539 63.0871 22.0732L63.0803 22.0736C62.7378 22.0718 62.3984 22.1423 62.0826 22.2812C61.7668 22.4201 61.4811 22.6244 61.2425 22.8818C61.0039 23.1392 60.8174 23.4444 60.6942 23.7791C60.5709 24.1138 60.5135 24.4712 60.5253 24.8297L60.5255 24.8355C60.5183 25.3713 60.6626 25.8973 60.9405 26.3471C61.2184 26.797 61.6173 27.1506 62.0869 27.3633C62.5564 27.576 63.0756 27.6382 63.5789 27.5422C64.0811 27.4465 64.5451 27.1974 64.9126 26.8263C65.2183 26.4781 65.4051 26.0349 65.4457 25.566H62.9662V24.4618H66.5114L66.5283 24.5606C66.5599 24.7449 66.5759 24.9318 66.576 25.1191ZM67.5844 21.1132H71.8244V22.2414H68.7303V24.2817H71.5494V25.3859H68.7303V27.4263H71.8244V28.5545H67.5844V21.1132ZM67.8136 21.3532V28.3145H71.5952V27.6663H68.5012V25.1459H71.3202V24.5218H68.5012V22.0013H71.5952V21.3532H67.8136ZM72.5463 21.1132H77.5541V22.2414H75.5831V28.5545H74.4715V22.2414H72.5463V21.1132ZM72.7755 21.3532V22.0013H74.7007V28.3145H75.3539V22.0013H77.3249V21.3532H72.7755ZM80.694 21.1132H81.8056V28.5545H80.694V21.1132ZM80.9232 21.3532V28.3145H81.5764V21.3532H80.9232ZM82.688 21.1132H87.6384V22.2414H85.7247V28.5545H84.6131V22.2414H82.688V21.1132ZM82.9171 21.3532V22.0013H84.8423V28.3145H85.4955V22.0013H87.4092V21.3532H82.9171ZM98.6166 21.1132H99.8719L103.04 26.4199V21.1132H104.151V28.5545H103.057L99.7396 22.9847V28.5545H98.6166V21.1132ZM98.8458 21.3532V28.3145H99.5104V22.1462L103.184 28.3145H103.922V21.3532H103.269V27.2565L99.7449 21.3532H98.8458ZM92.0038 22.6844C92.5214 22.1446 93.2221 21.8415 93.9526 21.8415C94.683 21.8415 95.3838 22.1446 95.9013 22.6844L95.9055 22.6887C96.4142 23.2761 96.6959 24.0408 96.6959 24.8338C96.6959 25.6269 96.4141 26.3915 95.9054 26.9788L95.9014 26.9834C95.3839 27.5232 94.683 27.8262 93.9526 27.8262C93.2221 27.8262 92.5214 27.5231 92.0038 26.9832L92.0847 26.8982L91.9998 26.9788C91.4911 26.3915 91.2093 25.6269 91.2093 24.8338C91.2093 24.0408 91.4911 23.2762 91.9998 22.6888L92.0038 22.6844ZM92.1676 26.8153C92.6421 27.309 93.2837 27.5861 93.9526 27.5861C94.6215 27.5861 95.2631 27.309 95.7375 26.8153C96.2068 26.2724 96.4667 25.5662 96.4667 24.8338C96.4667 24.1015 96.2068 23.3953 95.7375 22.8524C95.2631 22.3587 94.6215 22.0815 93.9526 22.0815C93.2837 22.0815 92.6421 22.3587 92.1676 22.8524C91.6984 23.3953 91.4385 24.1015 91.4385 24.8338C91.4385 25.5662 91.6984 26.2724 92.1676 26.8153Z" clip-rule="evenodd"/><path fill="#fff" d="M24.2197 52.0031L38.2582 36.7529L24.2315 21.53C23.8568 21.767 23.625 22.3158 23.625 23.0341V50.5136C23.63 51.2319 23.8535 51.7406 24.2197 52.0031Z"/><path fill="#fff" d="M38.7622 36.3297L42.9439 31.7865L25.9149 21.6428C25.6281 21.4618 25.3024 21.3662 24.9707 21.3657L38.7605 36.3279L38.7622 36.3297Z"/><path fill="#fff" d="M38.7613 37.175L24.9277 52.2028C25.2749 52.2091 25.6169 52.1107 25.9156 51.9184L42.9782 41.7474L38.7613 37.175Z"/><path fill="#fff" d="M49.1131 35.4641L43.4463 32.0823L39.1504 36.7494L43.4782 41.4457L49.1114 38.073C50.3093 37.3565 50.3092 36.177 49.1131 35.4641Z"/></svg>