<svg width="61" height="13" viewBox="0 0 61 13" fill="none" xmlns="http://www.w3.org/2000/svg">
<path d="M5.72635 0.534227C5.87928 0.288255 6.23727 0.288256 6.39021 0.534227L8.00411 3.12996C8.05792 3.2165 8.1434 3.27861 8.24233 3.30304L11.2097 4.03582C11.4909 4.10526 11.6016 4.44573 11.4149 4.66719L9.44492 7.00422C9.37924 7.08214 9.34659 7.18263 9.35393 7.28427L9.57399 10.3329C9.59484 10.6218 9.30522 10.8322 9.03691 10.7231L6.20551 9.57173C6.11111 9.53335 6.00545 9.53335 5.91105 9.57173L3.07964 10.7231C2.81134 10.8322 2.52172 10.6218 2.54257 10.3329L2.76263 7.28427C2.76997 7.18263 2.73732 7.08214 2.67164 7.00422L0.701673 4.66719C0.514999 4.44573 0.625625 4.10526 0.906817 4.03582L3.87423 3.30304C3.97316 3.27861 4.05864 3.2165 4.11245 3.12996L5.72635 0.534227Z" fill="#FFC833"/>
<path d="M17.8426 0.534227C17.9955 0.288255 18.3535 0.288256 18.5064 0.534227L20.1203 3.12996C20.1741 3.2165 20.2596 3.27861 20.3585 3.30304L23.326 4.03582C23.6071 4.10526 23.7178 4.44573 23.5311 4.66719L21.5611 7.00422C21.4955 7.08214 21.4628 7.18263 21.4701 7.28427L21.6902 10.3329C21.7111 10.6218 21.4214 10.8322 21.1531 10.7231L18.3217 9.57173C18.2273 9.53335 18.1217 9.53335 18.0273 9.57173L15.1959 10.7231C14.9276 10.8322 14.6379 10.6218 14.6588 10.3329L14.8788 7.28427C14.8862 7.18263 14.8535 7.08214 14.7878 7.00422L12.8179 4.66719C12.6312 4.44573 12.7418 4.10526 13.023 4.03582L15.9904 3.30304C16.0894 3.27861 16.1749 3.2165 16.2287 3.12996L17.8426 0.534227Z" fill="#FFC833"/>
<path d="M29.959 0.534227C30.1119 0.288255 30.4699 0.288256 30.6229 0.534227L32.2368 3.12996C32.2906 3.2165 32.3761 3.27861 32.475 3.30304L35.4424 4.03582C35.7236 4.10526 35.8342 4.44573 35.6476 4.66719L33.6776 7.00422C33.6119 7.08214 33.5793 7.18263 33.5866 7.28427L33.8067 10.3329C33.8275 10.6218 33.5379 10.8322 33.2696 10.7231L30.4382 9.57173C30.3438 9.53335 30.2381 9.53335 30.1437 9.57173L27.3123 10.7231C27.044 10.8322 26.7544 10.6218 26.7752 10.3329L26.9953 7.28427C27.0026 7.18263 26.97 7.08214 26.9043 7.00422L24.9343 4.66719C24.7477 4.44573 24.8583 4.10526 25.1395 4.03582L28.1069 3.30304C28.2058 3.27861 28.2913 3.2165 28.3451 3.12996L29.959 0.534227Z" fill="#FFC833"/>
<path d="M42.0757 0.534227C42.2286 0.288255 42.5866 0.288256 42.7396 0.534227L44.3535 3.12996C44.4073 3.2165 44.4928 3.27861 44.5917 3.30304L47.5591 4.03582C47.8403 4.10526 47.9509 4.44573 47.7643 4.66719L45.7943 7.00422C45.7286 7.08214 45.696 7.18263 45.7033 7.28427L45.9234 10.3329C45.9442 10.6218 45.6546 10.8322 45.3863 10.7231L42.5549 9.57173C42.4605 9.53335 42.3548 9.53335 42.2604 9.57173L39.429 10.7231C39.1607 10.8322 38.8711 10.6218 38.8919 10.3329L39.112 7.28427C39.1193 7.18263 39.0867 7.08214 39.021 7.00422L37.051 4.66719C36.8644 4.44573 36.975 4.10526 37.2562 4.03582L40.2236 3.30304C40.3225 3.27861 40.408 3.2165 40.4618 3.12996L42.0757 0.534227Z" fill="#FFC833"/>
<path d="M54.1919 0.534227C54.3449 0.288255 54.7029 0.288256 54.8558 0.534227L56.4697 3.12996C56.5235 3.2165 56.609 3.27861 56.7079 3.30304L59.6753 4.03582C59.9565 4.10526 60.0671 4.44573 59.8805 4.66719L57.9105 7.00422C57.8448 7.08214 57.8122 7.18263 57.8195 7.28427L58.0396 10.3329C58.0604 10.6218 57.7708 10.8322 57.5025 10.7231L54.6711 9.57173C54.5767 9.53335 54.471 9.53335 54.3766 9.57173L51.5452 10.7231C51.2769 10.8322 50.9873 10.6218 51.0081 10.3329L51.2282 7.28427C51.2355 7.18263 51.2029 7.08214 51.1372 7.00422L49.1672 4.66719C48.9806 4.44573 49.0912 4.10526 49.3724 4.03582L52.3398 3.30304C52.4387 3.27861 52.5242 3.2165 52.578 3.12996L54.1919 0.534227Z" fill="#FFC833"/>
</svg>
