<svg xmlns="http://www.w3.org/2000/svg" width="36" height="21" fill="none" viewBox="0 0 36 21"><path fill="#FB4B29" d="M25.6272 0.921875C22.3223 0.921875 19.4982 2.4504 17.9466 3.50421C16.3951 2.4504 13.5773 0.921875 10.2739 0.921875C4.5801 0.921875 0.60498 3.49704 0.60498 7.18331C0.60498 11.2451 5.54195 13.8704 10.3181 16.4097C12.5729 17.6098 14.9066 18.8498 16.6962 20.2249C16.9974 20.4551 17.4389 20.5881 17.9025 20.5881H17.9939C18.4591 20.5881 18.899 20.4541 19.1986 20.2249C20.9914 18.8498 23.3235 17.6088 25.5799 16.4097C30.3545 13.8714 35.2946 11.2461 35.2946 7.18331C35.2946 3.49704 31.3195 0.921875 25.6272 0.921875Z"/></svg>