<svg xmlns="http://www.w3.org/2000/svg" width="17" height="15" fill="none" viewBox="0 0 17 15"><path stroke="#FB4B29" stroke-width="1.823" d="M7.54211 2.51206L8.20111 3.20188L8.86012 2.51206C9.56851 1.77055 10.6723 0.911766 11.8334 0.911766C12.962 0.911766 13.8656 1.30151 14.4849 1.91968C15.104 2.53773 15.4938 3.43893 15.4938 4.564C15.4938 5.77901 15.0223 6.80253 14.244 7.77262C13.4482 8.76449 12.3787 9.64524 11.2335 10.5835C11.2335 10.5836 11.2334 10.5836 11.2334 10.5837L11.2119 10.6012C10.2041 11.4266 9.09066 12.3385 8.20156 13.3593C7.3212 12.3472 6.21815 11.4425 5.21919 10.6231L5.17147 10.584L5.17111 10.5837C4.02559 9.64502 2.95622 8.76405 2.16069 7.77217C1.38265 6.80211 0.9114 5.77874 0.9114 4.564C0.9114 3.43894 1.3012 2.53776 1.92039 1.91971C2.5397 1.30155 3.44349 0.911766 4.57258 0.911766C5.73238 0.911766 6.83299 1.7698 7.54211 2.51206Z"/></svg>