<svg width="39" height="38" viewBox="0 0 39 38" fill="none" xmlns="http://www.w3.org/2000/svg">
<path d="M36.0483 18.7403L20.3607 3.46603C20.2477 3.35576 20.1136 3.26827 19.9659 3.20858C19.8182 3.14889 19.6598 3.11816 19.5 3.11816C19.3401 3.11816 19.1817 3.14889 19.034 3.20858C18.8863 3.26827 18.7522 3.35576 18.6392 3.46603L2.95161 18.7403C2.49458 19.1856 2.2356 19.7904 2.2356 20.4213C2.2356 21.7313 3.32866 22.7963 4.6731 22.7963H6.32603V33.6953C6.32603 34.3522 6.87065 34.8828 7.54478 34.8828H17.0625V26.5703H21.3281V34.8828H31.4551C32.1292 34.8828 32.6739 34.3522 32.6739 33.6953V22.7963H34.3268C34.9743 22.7963 35.5951 22.5477 36.0521 22.0987C37.0004 21.1709 37.0004 19.668 36.0483 18.7403Z" fill="black"/>
</svg>
